<svg version="1.1" xmlns="http://www.w3.org/2000/svg" xmlns:xlink="http://www.w3.org/1999/xlink" width="127.74018" height="188.61875" viewBox="0,0,127.74018,188.61875"><g transform="translate(-182.03193,-23.63723)"><g data-paper-data="{&quot;isPaintingLayer&quot;:true}" stroke="#000000" stroke-miterlimit="10" stroke-dasharray="" stroke-dashoffset="0" style="mix-blend-mode: normal"><path d="M240.39133,28.78212l-20.58517,39.18025l-9.17601,-6.36987l13.83741,-36.70526z" data-paper-data="{&quot;index&quot;:null}" fill="#964b00" fill-rule="evenodd" stroke-width="2.5" stroke-linecap="round" stroke-linejoin="round"/><path d="M196.32153,50.36828c0,0 23.33275,16.63886 30.13584,21.49022c3.48314,2.48386 7.89972,5.63339 7.89972,5.63339" fill="none" fill-rule="nonzero" stroke-width="4" stroke-linecap="round" stroke-linejoin="miter"/><path d="M306.49473,203.07636c-149.89187,-18.05011 -92.37734,-133.36436 -89.71308,-133.15345c-0.75422,107.61838 90.58272,132.28104 90.58272,132.28104z" data-paper-data="{&quot;index&quot;:null}" fill="#ffcc33" fill-rule="evenodd" stroke-width="2" stroke-linecap="round" stroke-linejoin="round"/><path d="M309.77211,204.23407l-3.18621,5.31265l-3.17796,0.57824l5.8604,-6.87976z" data-paper-data="{&quot;index&quot;:null}" fill="#964b00" fill-rule="evenodd" stroke-width="0" stroke-linecap="round" stroke-linejoin="round"/><path d="M216.64122,69.60062c0,0 -24.9019,117.31523 90.47547,132.53737l-6.31939,7.64787c-17.93502,7.01193 -135.81076,-14.32983 -115.07878,-113.08989c0,0 5.69787,-29.93176 23.99296,-31.25566z" data-paper-data="{&quot;index&quot;:null}" fill="#ffe13d" fill-rule="evenodd" stroke-width="2.5" stroke-linecap="round" stroke-linejoin="round"/><g fill="#000000" fill-rule="nonzero"><path d="M191.83278,111.12908c0.13742,-1.25204 1.26375,-2.15561 2.51582,-2.0182c1.25204,0.13742 2.15562,1.26376 2.0182,2.51583c-0.13742,1.25204 -1.26377,2.15561 -2.51582,2.01819c-1.25204,-0.13742 -2.15561,-1.26375 -2.01819,-2.51582z" stroke-width="2" stroke-linecap="round" stroke-linejoin="round"/><path d="M205.78291,111.23991c0.13742,-1.25204 1.26376,-2.15561 2.51583,-2.01819c1.25204,0.13742 2.15562,1.26377 2.0182,2.51583c-0.13742,1.25204 -1.26377,2.15561 -2.51582,2.01819c-1.25204,-0.13742 -2.15561,-1.26377 -2.0182,-2.51582z" stroke-width="2" stroke-linecap="round" stroke-linejoin="round"/><path d="M206.90997,123.91475c-0.01029,1.1715 -2.64655,2.0981 -5.88824,2.06962c-3.24169,-0.02848 -5.86126,-1.00127 -5.85098,-2.17277c0.00491,-0.55862 2.93342,1.03102 5.72652,1.0297c3.0644,-0.00145 6.01808,-1.53943 6.01269,-0.92655z" stroke-width="1" stroke-linecap="butt" stroke-linejoin="miter"/></g></g></g></svg>